<svg id="Layer_1" data-name="Layer 1" xmlns="http://www.w3.org/2000/svg" xmlns:xlink="http://www.w3.org/1999/xlink" width="646" height="70" viewBox="0 0 646 70"><defs><style>.cls-1{fill:none;}.cls-2{stroke:#999;stroke-linecap:round;stroke-miterlimit:10;stroke-width:2px;}.cls-3{clip-path:url(#clip-path);}.cls-4{fill:#10357f;}.cls-5{fill:#1d1d1b;}.cls-6{fill:#7b73b4;}.cls-7{fill:#e10814;}.cls-8{fill:#2aa0da;}.cls-9{fill:#ff5f00;}.cls-10{fill:#eb001b;}.cls-11{fill:#f79e1b;}.cls-12{clip-path:url(#clip-path-2);}.cls-13{clip-path:url(#clip-path-3);}.cls-14{fill:#00beaa;}</style><clipPath id="clip-path"><rect class="cls-1" x="49.3124" y="-11.9102" width="150.4289" height="95.5547"/></clipPath><clipPath id="clip-path-2"><rect class="cls-1" x="496.3164" y="37.9669" width="144.6613" height="14.7486"/></clipPath><clipPath id="clip-path-3"><rect class="cls-1" x="496.3164" y="37.9669" width="144.6616" height="14.7486"/></clipPath></defs><line class="cls-2" x1="488.2859" y1="11.1163" x2="488.2859" y2="61.1163"/><g class="cls-3"><path class="cls-4" d="M123.2754,17.9981l-7.6672,35.8331H106.341l7.6672-35.8331Zm39.0013,23.1442,4.8791-13.4572,2.8118,13.4572ZM172.629,53.8391h8.57l-7.485-35.833h-7.9127a4.2166,4.2166,0,0,0-3.9524,2.63L147.94,53.847h9.7345l1.9326-5.3544h11.8968ZM148.4234,42.1324c.04-9.4573-13.077-9.98-12.99-14.21.0317-1.2831,1.2515-2.6534,3.9286-3.0019a17.521,17.521,0,0,1,9.1484,1.6l1.6237-7.6039a24.9775,24.9775,0,0,0-8.6731-1.5841c-9.1642,0-15.6116,4.8712-15.667,11.8414-.0555,5.1563,4.6019,8.0315,8.1107,9.75,3.62,1.7584,4.8316,2.8831,4.8078,4.4514-.0237,2.4079-2.8831,3.4693-5.5444,3.5089a19.3648,19.3648,0,0,1-9.5206-2.2654l-1.6792,7.8573a28.3177,28.3177,0,0,0,10.3048,1.901c9.75.0158,16.1264-4.792,16.15-12.2453M110.0241,17.9981,95.0066,53.8312H85.2088L77.8188,25.23c-.4515-1.7584-.84-2.4079-2.202-3.1445a38.6712,38.6712,0,0,0-9.1483-3.0494l.2218-1.0376H82.4682A4.3235,4.3235,0,0,1,86.7454,21.65L90.65,42.3858l9.6474-24.3877Z"/></g><path class="cls-5" d="M407.78,63.6222V63.77h.136a.139.139,0,0,0,.0749-.0182.07.07,0,0,0,0-.1115.1331.1331,0,0,0-.0749-.0182Zm.1379-.1039a.25.25,0,0,1,.1644.0478.1566.1566,0,0,1,.0579.13.1508.1508,0,0,1-.046.1134.2181.2181,0,0,1-.131.0548l.1814.21h-.1423l-.1681-.2084H407.78v.2084h-.119v-.5553Zm-.0359.7461a.4426.4426,0,0,0,.1807-.0365.4521.4521,0,0,0,.1461-.1.4442.4442,0,0,0,.0995-.148.4775.4775,0,0,0,0-.3633.4442.4442,0,0,0-.0995-.148.448.448,0,0,0-.3268-.1347.4718.4718,0,0,0-.1839.0352.4621.4621,0,0,0-.2481.2475.4863.4863,0,0,0,0,.3633.4659.4659,0,0,0,.2481.2481.46.46,0,0,0,.1839.0365Zm0-1.0641a.5978.5978,0,0,1,.2374.0466.6049.6049,0,0,1,.1933.1284.6137.6137,0,0,1,.131.1908.5925.5925,0,0,1,0,.4635.6165.6165,0,0,1-.131.19.6291.6291,0,0,1-.1933.1291.5863.5863,0,0,1-.2374.0473.6049.6049,0,0,1-.2412-.0473.61.61,0,0,1-.3243-.3192.5925.5925,0,0,1,0-.4635.612.612,0,0,1,.13-.1908.5936.5936,0,0,1,.1939-.1284.6168.6168,0,0,1,.2412-.0466Zm-9.0544-5.2874a2.7981,2.7981,0,0,1,.9313.1636l-.403,1.2323a2.1324,2.1324,0,0,0-.8173-.1513c-.8554,0-1.2828.5535-1.2828,1.5472v3.37h-1.3079V58.0636h1.2956v.7293a1.7731,1.7731,0,0,1,1.5841-.88Zm-4.526,1.3455h-2.1381v2.7165c0,.6032.214,1.0056.8677,1.0056a2.4192,2.4192,0,0,0,1.1573-.3394l.377,1.119a3.0685,3.0685,0,0,1-1.6345.4659c-1.5472,0-2.0878-.8305-2.0878-2.2259V59.2584h-1.22V58.0636h1.22l0-1.8233h1.3208v1.8233h2.1381v1.1948Zm-6.2846.3394a3.8757,3.8757,0,0,0-1.8737-.5153c-.717,0-1.1444.2638-1.1444.7041,0,.4028.4525.5154,1.019.591l.6161.0879c1.3073.1888,2.1.7424,2.1,1.7984,0,1.1448-1.006,1.9621-2.7414,1.9621a4.3366,4.3366,0,0,1-2.6036-.78l.6162-1.0182a3.204,3.204,0,0,0,2,.6285c.8929,0,1.3707-.2639,1.3707-.7292,0-.3394-.3395-.5283-1.0564-.6291l-.6162-.0881c-1.3455-.1877-2.0748-.7916-2.0748-1.7726,0-1.1949.9808-1.9242,2.5027-1.9242a4.4966,4.4966,0,0,1,2.4518.6285l-.5657,1.0564Zm-9.9848.9433a1.5474,1.5474,0,0,1,1.597-1.4586,1.493,1.493,0,0,1,1.5217,1.4586Zm4.4768.5283a2.8819,2.8819,0,0,0-2.8545-3.1565,3.1592,3.1592,0,0,0,.0879,6.3131,3.6558,3.6558,0,0,0,2.465-.8425l-.6414-.9685a2.868,2.868,0,0,1-1.748.6291,1.6694,1.6694,0,0,1-1.7984-1.4716h4.4645c.0126-.1637.0249-.3274.0249-.5031Zm20.8688-1.9272a1.9535,1.9535,0,0,0-.7468.1414,1.7629,1.7629,0,0,0-.5964.3954,1.8417,1.8417,0,0,0-.3954.6088,2.1813,2.1813,0,0,0,0,1.563,1.8442,1.8442,0,0,0,.3954.6089,1.7544,1.7544,0,0,0,.5964.3955,2.0388,2.0388,0,0,0,1.4936,0,1.793,1.793,0,0,0,.5995-.3955,1.8209,1.8209,0,0,0,.3986-.6089,2.1813,2.1813,0,0,0,0-1.563,1.784,1.784,0,0,0-.9981-1.0042,1.9535,1.9535,0,0,0-.7468-.1414Zm0-1.2367a3.38,3.38,0,0,1,1.29.2417,3.1487,3.1487,0,0,1,1.0264.6653,3.0377,3.0377,0,0,1,.6776,1.0012,3.3323,3.3323,0,0,1,0,2.5107,3.0351,3.0351,0,0,1-.6776,1.0018,3.1512,3.1512,0,0,1-1.0264.665,3.56,3.56,0,0,1-2.5792,0,3.1174,3.1174,0,0,1-1.0233-.665,3.076,3.076,0,0,1-.675-1.0018,3.3462,3.3462,0,0,1,0-2.5107,3.0787,3.0787,0,0,1,.675-1.0012,3.115,3.115,0,0,1,1.0233-.6653,3.3822,3.3822,0,0,1,1.29-.2417Zm-32.8521,3.1639a1.82,1.82,0,1,1,1.8233,1.9243,1.8032,1.8032,0,0,1-1.8233-1.9243Zm4.8666,0V58.0636h-1.308v.7293a2.28,2.28,0,0,0-1.8989-.88,3.16,3.16,0,0,0,0,6.3131,2.2781,2.2781,0,0,0,1.8989-.8809v.73h1.308V61.0694Zm-7.3694,3.0055V60.302a2.2372,2.2372,0,0,0-2.3642-2.3891,2.3284,2.3284,0,0,0-2.1126,1.0688,2.2076,2.2076,0,0,0-1.9871-1.0688,1.9883,1.9883,0,0,0-1.7606.8929v-.7422H358.49v6.0113h1.3206V60.7422a1.406,1.406,0,0,1,1.4712-1.597c.868,0,1.308.5658,1.308,1.5847v3.345h1.3206V60.7422a1.4177,1.4177,0,0,1,1.4713-1.597c.8928,0,1.32.5658,1.32,1.5847v3.345Z"/><polygon class="cls-6" points="392.441 47.83 372.606 47.83 372.606 12.185 392.441 12.185 392.441 47.83 392.441 47.83"/><path class="cls-7" d="M373.8654,30.0073a22.63,22.63,0,0,1,8.6583-17.8225,22.6695,22.6695,0,1,0,0,35.6449,22.63,22.63,0,0,1-8.6583-17.8224Z"/><path class="cls-8" d="M418.4934,44.0546v-.88h-.2305l-.2645.6052-.2638-.6052h-.23v.88h.1625v-.6641l.2481.5725h.1675l.2481-.5737v.6653Zm-1.4553,0v-.73h.2941v-.1488h-.75v.1488h.2947v.73Z"/><path class="cls-8" d="M419.2011,30.0073A22.6683,22.6683,0,0,1,382.5237,47.83a22.6726,22.6726,0,0,0,0-35.6449,22.6687,22.6687,0,0,1,36.6774,17.8225Z"/><path d="M295.2322,63.82v.1491h.137a.1371.1371,0,0,0,.0754-.0184.0621.0621,0,0,0,.0279-.0571.06.06,0,0,0-.0279-.0552.1371.1371,0,0,0-.0754-.0184Zm.1389-.1046a.2579.2579,0,0,1,.1661.0476.161.161,0,0,1,.0584.1306.1529.1529,0,0,1-.047.1148.2229.2229,0,0,1-.1319.0551l.1833.2112h-.1433l-.17-.21h-.0545v.21h-.12v-.5593Zm-.0356.7515a.4545.4545,0,0,0,.1814-.0368.4764.4764,0,0,0,.1478-.1008.4555.4555,0,0,0,.1-.1491.474.474,0,0,0-.1-.5155.473.473,0,0,0-.1478-.1.454.454,0,0,0-.1814-.0361.4614.4614,0,0,0-.435.2853.4722.4722,0,0,0,.1.515.4716.4716,0,0,0,.3354.1376Zm0-1.0724a.6161.6161,0,0,1,.4332.177.6111.6111,0,0,1,.1319.1915.5845.5845,0,0,1,.0475.234.5774.5774,0,0,1-.0475.2333.6111.6111,0,0,1-.1319.1915.6353.6353,0,0,1-.1947.13.602.602,0,0,1-.2385.0475.6188.6188,0,0,1-.2428-.0475.6261.6261,0,0,1-.196-.13.6158.6158,0,0,1-.1306-.1915.5774.5774,0,0,1-.0476-.2333.5846.5846,0,0,1,.0476-.234.6158.6158,0,0,1,.1306-.1915.5933.5933,0,0,1,.196-.1294.6189.6189,0,0,1,.2428-.0476Zm-56.5508-2.1523a1.8354,1.8354,0,1,1,1.8387,1.9405,1.8183,1.8183,0,0,1-1.8387-1.94Zm4.9076,0V58.2118h-1.3189v.7355a2.3,2.3,0,0,0-1.9149-.8877,3.187,3.187,0,0,0,0,6.3664,2.3,2.3,0,0,0,1.9149-.8879v.7357h1.3189V61.2425Zm44.5369,0a1.8354,1.8354,0,1,1,1.8391,1.9405,1.8185,1.8185,0,0,1-1.8391-1.94Zm4.9077,0V55.777h-1.319v3.17a2.3,2.3,0,0,0-1.9145-.8877,3.187,3.187,0,0,0,0,6.3664,2.3,2.3,0,0,0,1.9145-.8879v.7357h1.319V61.2425Zm-33.0857-2.0036a1.5056,1.5056,0,0,1,1.5345,1.4711h-3.1449a1.5605,1.5605,0,0,1,1.61-1.4711Zm.0255-1.1793a3.1859,3.1859,0,0,0,.0888,6.3664,3.6873,3.6873,0,0,0,2.4855-.85l-.6468-.9766a2.8873,2.8873,0,0,1-1.7627.6342,1.6835,1.6835,0,0,1-1.8134-1.484H262.93c.0127-.1649.0253-.33.0253-.5073a2.9063,2.9063,0,0,0-2.8786-3.1829Zm15.915,3.1829A1.8355,1.8355,0,1,1,277.83,63.183a1.8181,1.8181,0,0,1-1.8386-1.94Zm4.9079,0V58.2118h-1.319v.7355a2.3,2.3,0,0,0-1.9151-.8877,3.187,3.187,0,0,0,0,6.3664,2.3,2.3,0,0,0,1.9151-.8879v.7357H280.9V61.2425Zm-12.3519,0a3.0628,3.0628,0,0,0,3.2339,3.1835,3.1753,3.1753,0,0,0,2.1811-.723l-.634-1.0653a2.665,2.665,0,0,1-1.5852.5453,1.9439,1.9439,0,0,1,0-3.8806,2.6644,2.6644,0,0,1,1.5852.5453l.634-1.0653a3.1757,3.1757,0,0,0-2.1811-.7228,3.0625,3.0625,0,0,0-3.2339,3.1829ZM285.541,58.06a1.788,1.788,0,0,0-1.598.8877v-.7355h-1.3064v6.062h1.319v-3.399c0-1.0018.4313-1.56,1.2937-1.56a2.15,2.15,0,0,1,.8244.1521l.4059-1.2428a2.8256,2.8256,0,0,0-.9386-.1648Zm-35.33.634a4.533,4.533,0,0,0-2.4729-.634c-1.5345,0-2.5236.7355-2.5236,1.94,0,.989.7355,1.5978,2.0924,1.7881l.6214.0887c.7228.1015,1.0652.2918,1.0652.6342,0,.4693-.482.7356-1.3822.7356a3.2292,3.2292,0,0,1-2.0164-.6341l-.6214,1.0273a4.3774,4.3774,0,0,0,2.6251.7864c1.75,0,2.7644-.8244,2.7644-1.9786,0-1.0654-.7988-1.6233-2.1177-1.8136l-.6213-.0888c-.5707-.076-1.0272-.19-1.0272-.5958,0-.4439.431-.71,1.154-.71a3.9079,3.9079,0,0,1,1.8895.52l.5707-1.0653Zm17.0057-.634a1.7879,1.7879,0,0,0-1.5979.8877v-.7355h-1.3062v6.062h1.3188v-3.399c0-1.0018.4312-1.56,1.2937-1.56a2.15,2.15,0,0,1,.8242.1521l.4058-1.2428a2.8193,2.8193,0,0,0-.9384-.1648Zm-11.2484.1522h-2.1558V56.373h-1.3316v1.8388h-1.23v1.2047h1.23v2.7646c0,1.4078.5453,2.2449,2.1051,2.2449a3.1021,3.1021,0,0,0,1.6485-.4693l-.38-1.1288a2.4342,2.4342,0,0,1-1.1667.3424c-.6595,0-.875-.4058-.875-1.0146V59.4165h2.1558V58.2118Zm-19.7069,6.062V60.469a2.2563,2.2563,0,0,0-2.384-2.4094,2.3475,2.3475,0,0,0-2.1305,1.0779,2.2266,2.2266,0,0,0-2.0037-1.0779,2.0045,2.0045,0,0,0-1.7753.9v-.7482h-1.319v6.062H227.98V60.9129a1.4177,1.4177,0,0,1,1.4837-1.6105c.875,0,1.3189.5706,1.3189,1.5978v3.3736h1.3316V60.9129a1.43,1.43,0,0,1,1.4837-1.6105c.9,0,1.3315.5706,1.3315,1.5978v3.3736Z"/><polygon class="cls-9" points="269.748 47.913 249.772 47.913 249.772 12.015 269.748 12.015 269.748 47.913 269.748 47.913"/><path class="cls-10" d="M251.0407,29.9641a22.79,22.79,0,0,1,8.72-17.9486,22.83,22.83,0,1,0,0,35.8972,22.79,22.79,0,0,1-8.72-17.9486Z"/><path class="cls-11" d="M295.9837,44.1107v-.8861h-.2309l-.2663.6095-.2664-.6095h-.2314v.8861h.1636v-.6684l.2492.5763h.1693l.25-.5778v.67Zm-1.4649,0v-.7349h.2961v-.15H294.06v.15h.2961v.7349Zm2.1776-14.1466A22.8285,22.8285,0,0,1,259.76,47.9127a22.8328,22.8328,0,0,0,0-35.8972,22.8285,22.8285,0,0,1,36.9362,17.9486Z"/><path d="M513.3726,19.0979c-.7265,0-1.1855.3721-1.1855.8731-.003.5654.6113.7822,1.0732.9l.5762.1495c.75.1845,1.6992.5976,1.6992,1.6611,0,1.001-.7988,1.7305-2.1865,1.7305-1.3233,0-2.1514-.66-2.209-1.7305h.8945c.0518.6435.6231.9492,1.3086.9492.7588,0,1.31-.3808,1.31-.958,0-.5244-.4873-.7324-1.1191-.8994l-.6973-.19c-.9492-.2569-1.5371-.7383-1.5371-1.56,0-1.0186.9082-1.6963,2.0937-1.6963a1.8335,1.8335,0,0,1,2.0616,1.6328h-.8594C514.5318,19.4143,514.05,19.0979,513.3726,19.0979Z"/><path d="M516.3433,22.1282a2.0708,2.0708,0,0,1,2.0479-2.3008,1.9407,1.9407,0,0,1,1.9609,2.2266V22.36h-3.1494a1.2161,1.2161,0,0,0,1.2568,1.3321,1.0037,1.0037,0,0,0,1.0215-.6319l.8164.1475a1.7585,1.7585,0,0,1-1.8457,1.1963A2.048,2.048,0,0,1,516.3433,22.1282Zm3.1631-.4151a1.0938,1.0938,0,0,0-1.11-1.1738,1.1893,1.1893,0,0,0-1.1905,1.1738Z"/><path d="M521.1246,22.1194a2.066,2.066,0,0,1,2.0556-2.292,1.6946,1.6946,0,0,1,1.8291,1.4883h-.84a.95.95,0,0,0-.9746-.7617c-.7207,0-1.1992.5966-1.1992,1.5459,0,.9658.47,1.5742,1.1992,1.5742a.9457.9457,0,0,0,.9746-.7608h.84a1.6871,1.6871,0,0,1-1.82,1.49A2.0538,2.0538,0,0,1,521.1246,22.1194Z"/><path d="M528.7506,19.885h.8652v4.43h-.8477v-.7676h-.0468a1.3707,1.3707,0,0,1-1.3233.8252c-.8506,0-1.4531-.5713-1.4531-1.67V19.885h.8623v2.7139a.8958.8958,0,0,0,.9023.9892,1.0441,1.0441,0,0,0,1.0411-1.11Z"/><path d="M530.7838,19.885h.833v.7031h.0459a1.1532,1.1532,0,0,1,1.125-.77,3.4626,3.4626,0,0,1,.3662.02v.8242a2.0267,2.0267,0,0,0-.45-.0517.9951.9951,0,0,0-1.0576.998v2.7051h-.8623Z"/><path d="M533.55,22.1282a2.0707,2.0707,0,0,1,2.0478-2.3008,1.9407,1.9407,0,0,1,1.9609,2.2266V22.36H534.41a1.2162,1.2162,0,0,0,1.2569,1.3321,1.0039,1.0039,0,0,0,1.0215-.6319l.8164.1475a1.7585,1.7585,0,0,1-1.8457,1.1963A2.0479,2.0479,0,0,1,533.55,22.1282Zm3.163-.4151a1.0938,1.0938,0,0,0-1.11-1.1738,1.1891,1.1891,0,0,0-1.19,1.1738Z"/><path d="M540.6871,19.885h.8418v.7178h.0722a1.33,1.33,0,0,1,1.2715-.7754c1.07,0,1.86.8447,1.86,2.2813,0,1.4326-.7793,2.2919-1.8516,2.2919a1.3517,1.3517,0,0,1-1.28-.7753h-.0517v2.3505h-.8623Zm2.001,3.78c.7705,0,1.1738-.6777,1.1738-1.5654,0-.88-.3926-1.54-1.1738-1.54-.753,0-1.1563.6143-1.1563,1.54C541.5318,23.0315,541.9468,23.6653,542.6881,23.6653Z"/><path d="M545.5025,23.0628c0-1.0069.8594-1.2256,1.6982-1.3233.7959-.0928,1.1192-.0869,1.1192-.4014v-.0205a.7367.7367,0,0,0-.8418-.7929,1.0335,1.0335,0,0,0-1.0293.6172l-.8106-.1846a1.7882,1.7882,0,0,1,1.8282-1.13,1.5046,1.5046,0,0,1,1.7187,1.5459v2.9414h-.8418v-.6055h-.0351A1.3837,1.3837,0,0,1,547,24.4124,1.345,1.345,0,0,1,545.5025,23.0628Zm2.82-.3457v-.5713a3.3526,3.3526,0,0,1-1.0674.2363c-.498.0664-.9082.23-.9082.6924,0,.4267.3516.6455.84.6455A1.0388,1.0388,0,0,0,548.3228,22.7171Z"/><path d="M550.1382,25.8684l.2081-.706a.698.698,0,0,0,1.0009-.4961l.1065-.294-1.6211-4.4873h.9228l1.1221,3.4375h.0459l1.1221-3.4375.9316.0088-1.831,5.0117a1.4218,1.4218,0,0,1-1.419,1.0586A1.5638,1.5638,0,0,1,550.1382,25.8684Z"/><path d="M554.7974,19.885h.8272v.7207h.0547a1.2114,1.2114,0,0,1,1.206-.7783,1.1981,1.1981,0,0,1,1.19.7783h.0469a1.383,1.383,0,0,1,1.3291-.7783,1.3256,1.3256,0,0,1,1.3672,1.5166v2.9707h-.8623v-2.89a.7722.7722,0,0,0-.831-.8536.8478.8478,0,0,0-.8877.92v2.8232h-.8594V21.37a.7628.7628,0,0,0-.8106-.7989.948.948,0,0,0-.9082,1.0118v2.7314h-.8623Z"/><path d="M561.79,22.1282a2.0708,2.0708,0,0,1,2.0479-2.3008,1.9407,1.9407,0,0,1,1.9609,2.2266V22.36H562.649a1.2161,1.2161,0,0,0,1.2568,1.3321,1.0037,1.0037,0,0,0,1.0215-.6319l.8164.1475a1.7585,1.7585,0,0,1-1.8457,1.1963A2.048,2.048,0,0,1,561.79,22.1282Zm3.1631-.4151a1.0938,1.0938,0,0,0-1.11-1.1738,1.1893,1.1893,0,0,0-1.1905,1.1738Z"/><path d="M567.6324,24.3147H566.77v-4.43h.8271v.7207h.0547a1.32,1.32,0,0,1,1.3067-.7783,1.46,1.46,0,0,1,1.5078,1.67v2.8174h-.8614V21.6008a.9073.9073,0,0,0-.94-1.0263,1.0032,1.0032,0,0,0-1.0322,1.11Z"/><path d="M573.6988,20.5774h-.9082v2.4365c0,.499.251.5908.53.5908a1.3876,1.3876,0,0,0,.3027-.0371l.1563.712a1.6431,1.6431,0,0,1-.56.0927,1.1567,1.1567,0,0,1-1.292-1.18V20.5774h-.6494V19.885h.6494V18.8235h.8623V19.885h.9082Z"/><path d="M577.12,21.1047a.8538.8538,0,0,0-.8848-.5937c-.49,0-.8593.2422-.8564.582-.0029.3.207.4649.6943.58l.7041.1611c.8135.1875,1.211.5743,1.211,1.2,0,.8018-.7413,1.3692-1.8106,1.3692-.9951,0-1.6474-.4414-1.791-1.2256l.833-.127a.8628.8628,0,0,0,.9522.6582c.5654,0,.9316-.2685.9316-.6113,0-.2773-.1992-.4678-.626-.5625l-.75-.165c-.831-.1846-1.2109-.6026-1.2109-1.2315,0-.7842.709-1.3115,1.71-1.3115a1.5375,1.5375,0,0,1,1.6758,1.1387Z"/><path d="M581.1011,19.885h.8418v.7178h.0723a1.3293,1.3293,0,0,1,1.2715-.7754c1.07,0,1.86.8447,1.86,2.2813,0,1.4326-.7793,2.2919-1.8515,2.2919a1.3517,1.3517,0,0,1-1.28-.7753h-.0518v2.3505h-.8623Zm2.001,3.78c.7705,0,1.1738-.6777,1.1738-1.5654,0-.88-.3925-1.54-1.1738-1.54-.7529,0-1.1562.6143-1.1562,1.54C581.9459,23.0315,582.3609,23.6653,583.1021,23.6653Z"/><path d="M586.1246,19.885h.833v.7031h.0459a1.1533,1.1533,0,0,1,1.125-.77,3.461,3.461,0,0,1,.3662.02v.8242a2.0259,2.0259,0,0,0-.45-.0517.9951.9951,0,0,0-1.0576.998v2.7051h-.8623Z"/><path d="M588.8912,22.1194a2.0762,2.0762,0,1,1,4.13,0,2.0755,2.0755,0,1,1-4.13,0Zm3.2588-.0029c0-.8477-.3809-1.5684-1.1914-1.5684-.8164,0-1.1963.7207-1.1963,1.5684,0,.8515.38,1.5634,1.1963,1.5634C591.7691,23.68,592.15,22.968,592.15,22.1165Z"/><path d="M596.0191,24.3147h-.9228l-1.6094-4.43h.9258l1.122,3.4082h.0459L596.7,19.885h.9258Z"/><path d="M598.3365,18.6878a.5464.5464,0,1,1,.5459.5136A.5335.5335,0,0,1,598.3365,18.6878Zm.11,1.1972h.8623v4.43h-.8623Z"/><path d="M600.28,22.1087c0-1.4366.7871-2.2813,1.8574-2.2813a1.3366,1.3366,0,0,1,1.2744.7754h.0517V18.4085h.8623v5.9062h-.8417v-.6894h-.0723a1.3529,1.3529,0,0,1-1.28.7753C601.0552,24.4006,600.28,23.5413,600.28,22.1087Zm3.1982-.0088c0-.9258-.4043-1.54-1.1563-1.54-.7793,0-1.1709.66-1.1709,1.54,0,.8877.4,1.5654,1.1709,1.5654C603.065,23.6653,603.4781,23.0315,603.4781,22.1Z"/><path d="M605.3668,22.1282a2.0707,2.0707,0,0,1,2.0478-2.3008,1.9408,1.9408,0,0,1,1.961,2.2266V22.36h-3.1495a1.2162,1.2162,0,0,0,1.2569,1.3321,1.0039,1.0039,0,0,0,1.0215-.6319l.8164.1475a1.7585,1.7585,0,0,1-1.8457,1.1963A2.0479,2.0479,0,0,1,605.3668,22.1282Zm3.1631-.4151a1.0939,1.0939,0,0,0-1.11-1.1738,1.1891,1.1891,0,0,0-1.19,1.1738Z"/><path d="M610.1529,22.1087c0-1.4366.7871-2.2813,1.8574-2.2813a1.3365,1.3365,0,0,1,1.2744.7754h.0518V18.4085h.8623v5.9062h-.8418v-.6894h-.0723a1.3526,1.3526,0,0,1-1.28.7753C610.9283,24.4006,610.1529,23.5413,610.1529,22.1087Zm3.1982-.0088c0-.9258-.4043-1.54-1.1562-1.54-.7793,0-1.1709.66-1.1709,1.54,0,.8877.4,1.5654,1.1709,1.5654C612.9381,23.6653,613.3511,23.0315,613.3511,22.1Z"/><path d="M617.6646,18.4085h.8623v2.1943h.0528a1.3292,1.3292,0,0,1,1.2714-.7754c1.07,0,1.86.8447,1.86,2.2813,0,1.4326-.7793,2.2919-1.8516,2.2919a1.3514,1.3514,0,0,1-1.28-.7753h-.0723v.6894h-.8428Zm2.002,5.2568c.7695,0,1.1738-.6777,1.1738-1.5654,0-.88-.3926-1.54-1.1738-1.54-.753,0-1.1563.6143-1.1563,1.54C618.51,23.0315,618.9254,23.6653,619.6666,23.6653Z"/><path d="M622.4888,25.8684l.208-.706a.6981.6981,0,0,0,1.001-.4961l.1065-.294-1.6211-4.4873h.9228l1.1221,3.4375h.0459l1.1221-3.4375.9316.0088-1.8311,5.0117a1.4217,1.4217,0,0,1-1.4189,1.0586A1.5634,1.5634,0,0,1,622.4888,25.8684Z"/><g id="Artwork_6" data-name="Artwork 6"><g class="cls-12"><g class="cls-13"><path class="cls-14" d="M616.9022,41.42a14.6272,14.6272,0,0,0-1.4616,1.4788,16.59,16.59,0,0,1,4.2978,9.4346h2.1046a19.7662,19.7662,0,0,0-3.4116-9.1021,14.9512,14.9512,0,0,0-1.5292-1.8113"/><path class="cls-14" d="M614.3377,44.3645A14.4815,14.4815,0,0,0,613.2653,46.3a13.3982,13.3982,0,0,1,2.5944,6.0336h2.1122a15.8248,15.8248,0,0,0-2.6933-6.8141,12.4426,12.4426,0,0,0-.9409-1.1548"/><path class="cls-14" d="M611.9548,52.3334h2.1187a12.1389,12.1389,0,0,0-1.5708-3.9634,14.5244,14.5244,0,0,0-.5479,3.9634"/><path class="cls-14" d="M634.9481,40.5583q-.4117-.2972-.8448-.5657c-.1316.1372-.262.2758-.39.4176a20.4379,20.4379,0,0,0-4.6091,8.772,29.1575,29.1575,0,0,0-1.3006-4.6932,22.2149,22.2149,0,0,1,3.7193-5.7611q-.5079-.1889-1.033-.34a23.1931,23.1931,0,0,0-3.1937,4.8311,24.3209,24.3209,0,0,0-2.56-4.5642c-.1625-.2264-.3285-.4464-.4963-.6627a14.4139,14.4139,0,0,0-2.2492.5345,22.1943,22.1943,0,0,1,4.1353,7.4819,25.6907,25.6907,0,0,0-.9109,3.3146,22.6911,22.6911,0,0,0-3.6314-8.38,18.0653,18.0653,0,0,0-1.3828-1.7023,14.4855,14.4855,0,0,0-1.8578,1.0662,20.39,20.39,0,0,1,5.2541,12.0267h2.18a26.1847,26.1847,0,0,1,.8579-4.614,28.9127,28.9127,0,0,1,.81,4.614h2.1058a19.9329,19.9329,0,0,1,4.907-11.2531c.1625-.18.3261-.3534.49-.522"/><path class="cls-14" d="M637.6821,43.1247q-.3214-.3909-.6692-.7583a17.3846,17.3846,0,0,0-4.69,9.967h1.0112a16.4711,16.4711,0,0,1,4.0188-8.8564c.1091-.1211.2189-.2377.329-.3523"/><path class="cls-14" d="M636.1216,52.3334h1.0163a13.1374,13.1374,0,0,1,2.6061-5.8626q-.2238-.5062-.4844-.9918a14.0852,14.0852,0,0,0-3.138,6.8544"/><path class="cls-14" d="M640.7883,49.9875a11.0745,11.0745,0,0,0-.833,2.3458h1.0228a14.6042,14.6042,0,0,0-.19-2.3458"/><polygon class="cls-14" points="549.228 38.387 546.095 38.387 546.095 52.333 554.691 52.333 554.691 49.582 549.228 49.582 549.228 38.387"/><polygon class="cls-14" points="572.017 38.387 570.884 38.387 570.884 52.333 578.373 52.333 578.373 51.316 572.017 51.316 572.017 38.387"/><rect class="cls-14" x="579.6786" y="38.3873" width="1.1332" height="13.946"/><polygon class="cls-14" points="599.133 51.316 599.133 45.686 605.297 45.686 605.297 44.691 599.133 44.691 599.133 39.405 605.758 39.405 605.758 38.387 598 38.387 598 52.333 605.988 52.333 605.988 51.316 599.133 51.316"/><polygon class="cls-14" points="594.215 51.316 593.985 51.316 585.907 38.387 583.869 38.387 583.869 52.333 584.998 52.333 584.998 39.404 585.273 39.404 593.351 52.333 595.344 52.333 595.344 38.387 594.215 38.387 594.215 51.316"/><polygon class="cls-14" points="510.468 49.582 510.234 49.582 507.936 38.77 504.676 38.77 502.623 49.582 502.32 49.582 499.523 38.387 496.316 38.387 499.756 52.333 504.56 52.333 506.288 43.839 508.148 52.333 513.049 52.333 516.105 38.387 512.884 38.387 510.468 49.582"/><path class="cls-14" d="M566.8415,40.3359a7.7633,7.7633,0,0,0-5.6741-2.0635H555.99V52.41h5.1771a8.6257,8.6257,0,0,0,3.305-.5825,6.6836,6.6836,0,0,0,3.7921-3.7921,7.3231,7.3231,0,0,0,.4683-2.923,6.629,6.629,0,0,0-1.8913-4.776m-1.6677,6.8776a3.6017,3.6017,0,0,1-2.1684,2.1585,4.99,4.99,0,0,1-1.7768.2961h-2.1051V41.0138h2.1051a5.4842,5.4842,0,0,1,1.7768.2675,3.4512,3.4512,0,0,1,2.1684,2.1012,6.3407,6.3407,0,0,1,0,3.831"/><path class="cls-14" d="M526.8437,38.5878a8.73,8.73,0,0,0-6.4668,0,6.9369,6.9369,0,0,0-3.7448,3.9546,7.7392,7.7392,0,0,0-.4677,2.99,7.356,7.356,0,0,0,4.1552,6.5148,8.455,8.455,0,0,0,6.5907,0A7.6073,7.6073,0,0,0,529.1741,40.24a6.8731,6.8731,0,0,0-2.33-1.6525m-3.22,11.2746c-2.6555,0-4.1812-2.0891-4.1812-4.514,0-2.5146,1.4313-4.5139,4.1812-4.5139,2.3312,0,4.1811,1.6077,4.1811,4.5139,0,2.4392-1.5558,4.514-4.1811,4.514"/><path class="cls-14" d="M543.1305,45.8281a4.7771,4.7771,0,0,0,.6968-2.875,4.6,4.6,0,0,0-.6876-2.5886c-1.0851-1.6018-2.9726-2.0765-4.9865-2.0922l-5.4828,0V52.3332h3.1331V48.0155c.0617-.0009,2.3061.0017,2.3731-.0009l2.9572,4.3186h3.63L541.2014,47.34a4.1745,4.1745,0,0,0,1.9291-1.5116m-2.8522-1.49a2.1222,2.1222,0,0,1-1.9679,1.06h-2.5069V41.0138H538.31a2.4,2.4,0,0,1,1.1844.1912,2.0167,2.0167,0,0,1,.7835.7835,2.5512,2.5512,0,0,1,0,2.35"/></g></g></g></svg>